<svg width="30" height="30" viewBox="0 0 30 30" fill="none" xmlns="http://www.w3.org/2000/svg">
<g id="Logo" clip-path="url(#clip0_3788_744)">
<g id="Group">
<path id="Vector" d="M9.83839 18.7132V9.14062L6.23438 10.7716V20.3512L9.83839 18.7132Z" fill="#D9A14C"/>
<path id="Vector_2" d="M4.47226 9.63359L11.5975 6.40987V17.9109L14.1158 16.7665V0L1.0625 5.93333V22.6998L4.47226 21.1499V9.63359Z" fill="#D9A14C"/>
<path id="Vector_3" d="M13.1905 23.5884C12.5201 24.0075 12.5196 24.3686 13.1905 24.788C13.6524 25.065 14.3103 25.224 14.9957 25.224C15.6812 25.224 16.3391 25.065 16.801 24.788C17.4714 24.3689 17.4719 24.0077 16.801 23.5884C16.3391 23.3114 15.6812 23.1523 14.9957 23.1523C14.3103 23.1523 13.6524 23.3114 13.1905 23.5884Z" fill="#D9A14C"/>
<path id="Vector_4" d="M2.125 24.1508L14.9946 30.0008L27.8643 24.1508L14.9946 18.3008L2.125 24.1508ZM19.0682 24.1889C19.0682 25.01 18.5717 25.7788 17.7054 26.2987C16.2493 27.2075 13.7399 27.2076 12.2838 26.2987C10.4768 25.2448 10.4763 23.1331 12.2839 22.0791C13.74 21.1704 16.2493 21.1703 17.7054 22.0791C18.5717 22.5991 19.0682 23.3679 19.0682 24.1889Z" fill="#D9A14C"/>
<path id="Vector_5" d="M24.2007 9.64701L19.7188 7.60938V13.6208L24.2007 15.6578V9.64701Z" fill="#D9A14C"/>
<path id="Vector_6" d="M15.875 0V16.7665L28.9283 22.6998V5.93333L15.875 0ZM25.9628 18.3916L17.9596 14.7535V4.8746L25.9628 8.51266V18.3916Z" fill="#D9A14C"/>
</g>
</g>
<defs>
<clipPath id="clip0_3788_744">
<rect width="30" height="30" fill="white"/>
</clipPath>
</defs>
</svg>
