<svg width="12" height="224" viewBox="0 0 12 224" fill="none" xmlns="http://www.w3.org/2000/svg">
<path id="Line 441" d="M6 0.666667C3.05448 0.666667 0.666666 3.05448 0.666667 6C0.666667 8.94552 3.05448 11.3333 6 11.3333C8.94552 11.3333 11.3333 8.94552 11.3333 6C11.3333 3.05448 8.94552 0.666666 6 0.666667ZM6.00001 212.667C3.05449 212.667 0.666676 215.054 0.666676 218C0.666676 220.946 3.05449 223.333 6.00001 223.333C8.94553 223.333 11.3333 220.946 11.3333 218C11.3333 215.054 8.94553 212.667 6.00001 212.667ZM5 6L5.00001 218L7.00001 218L7 6L5 6Z" fill="#D9A14C"/>
</svg>
